<?xml version="1.0" encoding="UTF-8"?>
<svg width="213px" height="213px" viewBox="0 0 213 213" version="1.1" xmlns="http://www.w3.org/2000/svg" xmlns:xlink="http://www.w3.org/1999/xlink">
    <g id="Artboard" stroke="none" stroke-width="1" fill="none" fill-rule="evenodd">
        <g id="Group" transform="translate(7.000000, 59.000000)" fill="#530981">
            <path d="M200,36.5946284 C199.083927,39.1996668 183.771825,55.0745614 181.999347,57.1498018 C159.828883,78.2446767 149.431986,86.510664 139.40708,84.6144954 C135.551348,83.9034322 132.273975,81.5332216 130.153322,77.9779056 C120.51399,61.6234519 136.900854,35.3141135 148.660839,16.8264703 C138.635934,24.6481655 125.912016,36.973261 113.959244,48.3502722 C102.392045,59.4902623 91.4032067,69.9191893 83.1133812,76.3187581 C82.149448,77.2668424 78.6792884,79.8740741 75.9802754,76.5557792 C72.8956892,73.0004632 75.0163422,68.971105 81.7638747,56.1719674 C85.6196075,48.8243143 94.6805796,31.5217765 94.1022197,26.5443341 C85.8123941,22.751997 43.0911904,72.1870883 29.9816988,87.5934576 L25.9331793,92.5709 C24.9692461,93.5189843 23.2341663,95.6521739 21.1135133,95.6521739 C20.3423667,95.6521739 19.3784335,95.4151528 18.607287,94.4670686 C15.3299141,91.1487736 24.6990289,79.8740741 35.8806541,57.8311149 C41.4714667,47.1651669 48.6045724,33.1809239 52.2675186,23.7000813 C43.977693,28.9145447 29.7114816,38.4975375 13.3344562,52.2957272 C11.3463292,53.6885728 3.18921377,60.2670429 0,62.8584335 C2.26578056,58.2114528 7.9465427,51.1061048 10.5544554,48.3502722 C38.0459096,19.3243879 54.9665316,8.76775405 59.9789842,13.2711543 C60.7501308,13.7451965 63.0635705,16.3524282 61.714064,21.0928495 C59.5934109,28.9145447 45.6331556,53.8841783 38.8856231,67.3943791 C62.59838,40.3739774 88.1258338,11.8490279 98.5363125,18.4856178 C100.271392,19.6707231 101.428112,21.3298706 101.813685,23.9371023 C103.163192,31.5217765 97.7651659,43.3728298 89.4753403,59.2532413 C95.4517262,53.8017567 102.199259,47.4021879 109.139578,40.7655981 C127.647095,22.9890181 146.732973,4.50137484 157.914598,0.472016709 C161.191971,-0.950109692 162.927051,1.18307991 163.505411,2.36818524 C165.626064,6.39754338 163.505411,9.71583831 156.372305,20.6188074 C147.889693,33.6549661 130.153322,61.1494098 136.708067,72.2894 C137.479214,73.9485474 138.82872,74.6596106 140.371014,74.8966317 C145.76904,76.081737 157.688642,75.7608128 182.558119,52.2957272 C184.337732,50.9030883 197.757145,37.5553357 200,36.5946284 Z" id="m-copy"></path>
            <path d="M195.189,23.504 L193.523,23.504 C193.523,18.067 189.101,13.646 183.667,13.646 L183.666,11.9819987 C190.021,11.979 195.189,17.149 195.189,23.504 Z M183.666,14.856 L183.665,16.52 C187.518,16.52 190.648,19.653 190.646,23.503 L192.312,23.502 C192.312,18.735 188.436,14.856 183.666,14.856 Z M183.333,7 C174.326,7 167,14.326 167,23.334 C167,32.34 174.326,39.666 183.333,39.666 C183.89,39.666 184.34,39.216 184.34,38.66 C184.34,38.101 183.89,37.65 183.333,37.65 C175.437,37.65 169.015,31.226 169.015,23.334 C169.015,15.438 175.437,9.015 183.333,9.015 C191.229,9.015 197.65,15.439 197.65,23.334 C197.65,26.633 195.894,29.902 193.381,31.288 C192.468,31.79 191.478,32.039 190.422,32.049 C191.056,31.672 191.605,31.162 192.013,30.52 C192.093,30.399 192.199,30.292 192.251,30.161 C192.579,29.372 192.608,28.477 192.806,27.643 C193.049,26.579 188.148,24.5 187.722,25.829 C187.568,26.321 187.332,27.877 187.023,28.287 C186.748,28.653 186.07,28.479 185.646,28.119 C184.529,27.167 183.282,25.768 182.188,24.662 L182.19,24.661 C182.162,24.632 182.128,24.6 182.098,24.569 C182.067,24.54 182.036,24.507 182.005,24.477 L182.005,24.479 C180.899,23.383 179.499,22.139 178.548,21.02 C178.188,20.596 178.014,19.918 178.38,19.643 C178.79,19.332 180.346,19.1 180.838,18.944 C182.164,18.52 180.088,13.616 179.022,13.86 C178.19,14.055 177.295,14.087 176.506,14.413 C176.372,14.47 176.268,14.573 176.147,14.653 C173.348,16.427 172.987,20.735 175.719,23.945 C176.76,25.173 177.846,26.361 178.964,27.521 L178.958,27.525 C178.989,27.556 179.021,27.585 179.053,27.615 C179.083,27.646 179.112,27.677 179.141,27.71 L179.147,27.704 C180.307,28.822 181.682,30.469 183.916,31.959 C188.619,35.1 192.228,34.223 194.354,33.057 C198.024,31.036 199.666,26.719 199.666,23.338 C199.666,14.326 192.339,7 183.333,7 Z" id="Shape" fill-rule="nonzero"></path>
        </g>
    </g>
</svg>